<?xml version="1.0" encoding="iso-8859-1"?>
<!-- Generator: Adobe Illustrator 19.0.0, SVG Export Plug-In . SVG Version: 6.00 Build 0)  -->
<svg version="1.1" id="Capa_1" xmlns="http://www.w3.org/2000/svg" xmlns:xlink="http://www.w3.org/1999/xlink" x="0px" y="0px"
	 viewBox="0 0 480 480" style="enable-background:new 0 0 480 480;" xml:space="preserve">
<path style="fill:#FFFBEA;" d="M104,424h272V56H104V424z M200,352c-8.837,0-16-7.163-16-16s7.163-16,16-16s16,7.163,16,16
	S208.837,352,200,352z M280,352c-8.837,0-16-7.163-16-16s7.163-16,16-16s16,7.163,16,16S288.837,352,280,352z M152,160l8,40h176
	l-12.072,68.528c-2.253,15.764-15.755,27.473-31.68,27.472H176l-16-96L152,160z"/>
<g>
	<path style="fill:#414042;" d="M104,440c0,17.673,14.327,32,32,32h208c17.673,0,32-14.327,32-32v-16H104V440z"/>
	<path style="fill:#414042;" d="M344,8H136c-17.673,0-32,14.327-32,32v16h272V40C376,22.327,361.673,8,344,8z"/>
</g>
<g>
	<path style="fill:#FF5023;" d="M292.248,296c15.925,0.001,29.427-11.708,31.68-27.472L336,200H160l16,96H292.248z"/>
	<circle style="fill:#FF5023;" cx="200" cy="336" r="16"/>
	<circle style="fill:#FF5023;" cx="280" cy="336" r="16"/>
</g>
<g>
	<path style="fill:#231F20;" d="M344,0H136c-22.08,0.026-39.974,17.92-40,40v400c0.026,22.08,17.92,39.974,40,40h208
		c22.08-0.026,39.974-17.92,40-40V40C383.974,17.92,366.08,0.026,344,0z M112,64h256v352H112V64z M136,16h208
		c13.255,0,24,10.745,24,24v8H112v-8C112,26.745,122.745,16,136,16z M344,464H136c-13.255,0-24-10.745-24-24v-8h256v8
		C368,453.255,357.255,464,344,464z"/>
	<path style="fill:#231F20;" d="M208,40h8c4.418,0,8-3.582,8-8s-3.582-8-8-8h-8c-4.418,0-8,3.582-8,8S203.582,40,208,40z"/>
	<path style="fill:#231F20;" d="M240,40h32c4.418,0,8-3.582,8-8s-3.582-8-8-8h-32c-4.418,0-8,3.582-8,8S235.582,40,240,40z"/>
	<path style="fill:#231F20;" d="M256,440h-32c-4.418,0-8,3.582-8,8s3.582,8,8,8h32c4.418,0,8-3.582,8-8S260.418,440,256,440z"/>
	<path style="fill:#231F20;" d="M166.56,192l-8-40H128v16h17.448l23.776,136h123.024c19.786-0.055,36.577-14.527,39.552-34.088
		L345.528,192L166.56,192z M316,267.4c-1.73,11.798-11.828,20.556-23.752,20.6H182.776l-13.328-80h157.024L316,267.4z"/>
	<path style="fill:#231F20;" d="M200,312c-13.255,0-24,10.745-24,24s10.745,24,24,24s24-10.745,24-24S213.255,312,200,312z M200,344
		c-4.418,0-8-3.582-8-8s3.582-8,8-8s8,3.582,8,8S204.418,344,200,344z"/>
	<path style="fill:#231F20;" d="M280,312c-13.255,0-24,10.745-24,24s10.745,24,24,24s24-10.745,24-24S293.255,312,280,312z M280,344
		c-4.418,0-8-3.582-8-8s3.582-8,8-8s8,3.582,8,8S284.418,344,280,344z"/>
</g>
<g>
</g>
<g>
</g>
<g>
</g>
<g>
</g>
<g>
</g>
<g>
</g>
<g>
</g>
<g>
</g>
<g>
</g>
<g>
</g>
<g>
</g>
<g>
</g>
<g>
</g>
<g>
</g>
<g>
</g>
</svg>
