<?xml version="1.0" encoding="iso-8859-1"?>
<!-- Generator: Adobe Illustrator 19.0.0, SVG Export Plug-In . SVG Version: 6.00 Build 0)  -->
<svg version="1.1" id="Capa_1" xmlns="http://www.w3.org/2000/svg" xmlns:xlink="http://www.w3.org/1999/xlink" x="0px" y="0px"
	 viewBox="0 0 512 512" style="enable-background:new 0 0 512 512;" xml:space="preserve">
<circle style="fill:#FFDC00;" cx="256" cy="256" r="256"/>
<path style="fill:#FFC000;" d="M512,256c0-8.33-0.412-16.563-1.19-24.69L356.5,77l-201,352.333l81.996,81.996
	C243.608,511.766,249.776,512,256,512C397.385,512,512,397.385,512,256z"/>
<rect x="155.5" y="77" style="fill:#333333;" width="201" height="352.33"/>
<rect x="255.67" y="77" style="fill:#1A1A1A;" width="100.83" height="352.33"/>
<rect x="172" y="101.5" style="fill:#FFECB3;" width="168" height="282"/>
<rect x="255.67" y="101.5" style="fill:#FFD863;" width="84.33" height="282"/>
<circle style="fill:#1A1A1A;" cx="256" cy="404.5" r="12.5"/>
<path d="M256,392c-0.113,0-0.221,0.014-0.333,0.017v24.966c0.112,0.003,0.221,0.017,0.333,0.017c6.904,0,12.5-5.596,12.5-12.5
	S262.904,392,256,392z"/>
<path style="fill:#FF3F84;" d="M294.083,215.198c-19.691,0-35.911,14.82-38.138,33.912h-0.541
	c-2.227-19.092-18.447-33.911-38.138-33.911c-21.212,0-38.408,17.195-38.408,38.406c0,38.794,76.816,80.651,76.816,80.651
	s76.816-43.928,76.816-80.653C332.491,232.393,315.295,215.198,294.083,215.198z"/>
<path style="fill:#983262;" d="M294.083,215.198c-19.691,0-35.91,14.82-38.138,33.911h-0.271v85.147
	c0,0,76.816-43.928,76.816-80.653C332.491,232.393,315.295,215.198,294.083,215.198z"/>
<path style="fill:#FF3F84;" d="M305.04,156.075c0-11.882,9.633-21.515,21.517-21.515c11.883,0,21.517,9.632,21.516,21.515
	c0-11.882,9.633-21.515,21.517-21.515c11.883,0,21.517,9.632,21.516,21.515c0,20.573-43.033,45.182-43.033,45.182
	S305.04,177.807,305.04,156.075z"/>
<path style="fill:#983262;" d="M348.073,201.256c0,0,43.033-24.609,43.033-45.182c0-11.882-9.633-21.515-21.517-21.515
	c-11.883,0-21.517,9.633-21.517,21.515L348.073,201.256z"/>
<g>
</g>
<g>
</g>
<g>
</g>
<g>
</g>
<g>
</g>
<g>
</g>
<g>
</g>
<g>
</g>
<g>
</g>
<g>
</g>
<g>
</g>
<g>
</g>
<g>
</g>
<g>
</g>
<g>
</g>
</svg>
